# xmcd
#
# Track frame offsets:
#	150
#	9895
#	23672
#	37042
#	55925
#	73400
#	90172
#	105537
#	117580
#	130347
#	143182
#	152710
#	173785
#	180120
#	194187
#	212577
#	223192
#	239525
#	254795
#	265605
#	281350
#	294737
#
# Disc length: 4144 seconds
#
# Revision: 3
# Processed by: cddbd v1.5.2PL0 Copyright (c) Steve Scherf et al.
# Submitted via: dBpowerAMP V4.0
#
DISCID=4b102e16
DTITLE=Unknown - Prison Blues Of The South
DYEAR=1994
DGENRE=Blues
TTITLE0=No More, My Land
TTITLE1=Old Alabama
TTITLE2=Black Woman
TTITLE3=Jumpin' Judy
TTITLE4=Whoa, Buck
TTITLE5=Prettiest Train
TTITLE6=Old Dollar Mamie
TTITLE7=It Makes A Long Time Man Feel Bad
TTITLE8=Rosie
TTITLE9=Levee Camp Holler
TTITLE10=What Makes A Work Song Leader?
TTITLE11=Early In THe Mornin'
TTITLE12=How I Got In The Pen
TTITLE13=Tangle Eye Blues
TTITLE14=Stackerlee
TTITLE15=Prison Blues
TTITLE16=Duckin' And Dodgin'
TTITLE17=My Baby Got To Go
TTITLE18=Penitentiary Blues
TTITLE19=Lonesome Blues
TTITLE20=They'll Miss Me When I'm Gone
TTITLE21=Rock Me Mama
EXTD=All songs recorded at the Louisina State Penitentiary and sung by unknown prisoners according to the CD jacket.\nShould be the first option. Various for track names is completely bogus.
EXTT0=
EXTT1=
EXTT2=
EXTT3=
EXTT4=
EXTT5=
EXTT6=
EXTT7=
EXTT8=
EXTT9=
EXTT10=
EXTT11=
EXTT12=
EXTT13=
EXTT14=
EXTT15=
EXTT16=
EXTT17=
EXTT18=
EXTT19=
EXTT20=
EXTT21=
PLAYORDER=
